<svg xmlns="http://www.w3.org/2000/svg" xmlns:xlink="http://www.w3.org/1999/xlink" viewBox="0,0,256,256" width="64px" height="64px"><g fill="none" fill-rule="nonzero" stroke="none" stroke-width="none" stroke-linecap="none" stroke-linejoin="none" stroke-miterlimit="10" stroke-dasharray="" stroke-dashoffset="0" font-family="none" font-weight="none" font-size="none" text-anchor="none" style="mix-blend-mode: normal"><g transform="scale(4,4)"><ellipse cx="32" cy="61" rx="19" ry="3" fill="#000000" stroke="none" stroke-width="1" stroke-linecap="butt" stroke-linejoin="miter" opacity="0.3"></ellipse><path d="M43.299,55h-22.598c-1.535,0 -2.823,-1.159 -2.984,-2.686l-3.717,-35.314h36l-3.717,35.314c-0.161,1.527 -1.449,2.686 -2.984,2.686z" fill="#dadada" stroke="none" stroke-width="1" stroke-linecap="butt" stroke-linejoin="miter"></path><path d="M50,22h-36c-1.657,0 -3,-1.343 -3,-3v-2c0,-1.657 1.343,-3 3,-3h36c1.657,0 3,1.343 3,3v2c0,1.657 -1.343,3 -3,3z" fill="#000000" stroke="none" stroke-width="1" stroke-linecap="butt" stroke-linejoin="miter"></path><path d="M43.965,26.469l-2.248,21.757c-0.115,1.011 -0.971,1.774 -1.988,1.774h-6.729c-2.762,0 -4.997,2.239 -4.997,5h15.296c1.535,0 2.823,-1.159 2.984,-2.686l3.152,-30.249c-2.723,-0.281 -5.161,1.682 -5.47,4.404z" fill="#000000" stroke="none" stroke-width="1" stroke-linecap="butt" stroke-linejoin="miter" opacity="0.15"></path><path d="M21.111,37.65l-1.585,-16.205c-0.004,-0.04 -0.009,-0.08 -0.015,-0.119c-0.165,-1.224 0.733,-2.326 1.969,-2.326h9.385c2.762,0 4.997,-2.239 4.997,-5h-21.862c-1.657,0 -3,1.343 -3,3v2c0,1.657 1.343,3 3,3h0.558l2.139,21.174c2.744,-0.306 4.721,-2.779 4.414,-5.524z" fill="#ffffff" stroke="none" stroke-width="1" stroke-linecap="butt" stroke-linejoin="miter" opacity="0.3"></path><path d="M17.5,17.5h6" fill="none" stroke="#ffffff" stroke-width="3" stroke-linecap="round" stroke-linejoin="round"></path><path d="M39,14h-14v-2c0,-1.657 1.343,-3 3,-3h8c1.657,0 3,1.343 3,3z" fill="#dadada" stroke="none" stroke-width="1" stroke-linecap="butt" stroke-linejoin="miter"></path></g></g></svg>